<svg xmlns="http://www.w3.org/2000/svg" width="18.788" height="18.844" viewBox="0 0 18.788 18.844"><g transform="translate(0.154 0.15)"><g transform="translate(3.187)"><path d="M.368,5.388a.362.362,0,0,1-.361-.362V1.087A1.086,1.086,0,0,1,1.089,0H14.222A1.086,1.086,0,0,1,15.3,1.087V17.458a1.086,1.086,0,0,1-1.082,1.087H1.089A1.086,1.086,0,0,1,.007,17.458V14.789a.361.361,0,1,1,.722,0v2.668a.362.362,0,0,0,.361.362H14.222a.362.362,0,0,0,.361-.362V1.087a.362.362,0,0,0-.361-.362H1.089a.362.362,0,0,0-.361.362V5.025A.362.362,0,0,1,.368,5.388Z" transform="translate(-0.007)" fill="#00aba5" stroke="#00aba5" stroke-width="0.3"/></g><g transform="translate(7.495 1.956)"><path d="M123.339,54a3.331,3.331,0,0,1,2.286,5.754.358.358,0,0,1-.039.036,3.326,3.326,0,0,1-4.494,0,.362.362,0,0,1-.039-.036A3.331,3.331,0,0,1,123.339,54Zm0,5.94a2.594,2.594,0,0,0,1.575-.531,1.811,1.811,0,0,0-3.15,0A2.594,2.594,0,0,0,123.339,59.94Zm.58-2.753v-.235a.58.58,0,1,0-1.159,0v.235a.58.58,0,1,0,1.159,0Zm-2.678,1.691a2.513,2.513,0,0,1,1.067-.895,1.3,1.3,0,0,1-.272-.8v-.235a1.3,1.3,0,1,1,2.608,0v.235a1.3,1.3,0,0,1-.272.8,2.513,2.513,0,0,1,1.067.895,2.608,2.608,0,1,0-4.2,0Z" transform="translate(-120.007 -54)" fill="#00aba5" stroke="#00aba5" stroke-width="0.3"/></g><g transform="translate(8.515 15.864)"><path d="M202.369,438h1.956a.362.362,0,1,1,0,.724h-1.956a.362.362,0,1,1,0-.724Z" transform="translate(-202.007 -438)" fill="#00aba5" stroke="#00aba5" stroke-width="0.3"/></g><g transform="translate(8.507 13.836)"><path d="M114.369,382h5.143a.362.362,0,1,1,0,.724h-5.143a.362.362,0,0,1,0-.724Z" transform="translate(-114.007 -382)" fill="#00aba5" stroke="#00aba5" stroke-width="0.3"/></g><g transform="translate(8.507 11.808)"><path d="M114.369,326h5.143a.362.362,0,1,1,0,.724h-5.143a.362.362,0,0,1,0-.724Z" transform="translate(-114.007 -326)" fill="#00aba5" stroke="#00aba5" stroke-width="0.3"/></g><g transform="translate(15.177 9.779)"><g transform="translate(0)"><path d="M71.393,270.106a.362.362,0,1,1-.106.256A.365.365,0,0,1,71.393,270.106Z" transform="translate(-71.287 -270)" fill="#00aba5" stroke="#00aba5" stroke-width="0.3"/></g></g><g transform="translate(15.177 11.808)"><g transform="translate(0)"><path d="M71.393,326.106a.362.362,0,1,1-.106.256A.366.366,0,0,1,71.393,326.106Z" transform="translate(-71.287 -326)" fill="#00aba5" stroke="#00aba5" stroke-width="0.3"/></g></g><g transform="translate(15.177 13.836)"><g transform="translate(0)"><path d="M71.393,382.106a.362.362,0,1,1-.106.256A.366.366,0,0,1,71.393,382.106Z" transform="translate(-71.287 -382)" fill="#00aba5" stroke="#00aba5" stroke-width="0.3"/></g></g><g transform="translate(8.507 9.779)"><path d="M114.369,270h5.143a.362.362,0,1,1,0,.724h-5.143a.362.362,0,0,1,0-.724Z" transform="translate(-114.007 -270)" fill="#00aba5" stroke="#00aba5" stroke-width="0.3"/></g><g transform="translate(0 4.516)"><g transform="translate(0)"><path d="M298.35,124.88a1.521,1.521,0,0,1,2.078.557l4.558,7.895a.363.363,0,0,1,.046.141l.321,2.874a.362.362,0,0,1-.575.332l-2.328-1.715a.362.362,0,0,1-.1-.111l-4.558-7.895A1.523,1.523,0,0,1,298.35,124.88Zm6.191,10.724-.168-1.5-1.048.605Zm-1.744-1.427,1.38-.8-3.658-6.335-1.38.8ZM298.42,126.6l.357.618,1.38-.8-.357-.618a.8.8,0,0,0-1.38.8Z" transform="translate(-297.589 -124.675)" fill="#00aba5" stroke="#00aba5" stroke-width="0.3"/></g></g></g></svg>