<svg id="Group_162" data-name="Group 162" xmlns="http://www.w3.org/2000/svg" width="43.139" height="64" viewBox="0 0 43.139 64">
  <g id="Group_162-2" data-name="Group 162" transform="translate(0)">
    <path id="Path_62" data-name="Path 62" d="M125.648,51.855a.938.938,0,0,0-.937.938v8.814a.518.518,0,0,1-.518.518h-5.04V43.663a.938.938,0,0,0-1.875,0V62.125H107.13l2.943-3.238a1.681,1.681,0,0,0,.405-1.348c0-.01,0-.019,0-.028l-2.8-16.558.755-1.137a2.126,2.126,0,0,0,1.342.582,1.642,1.642,0,0,0,1.469-.909h0l2.956-5.925,6.734,2.608a6.5,6.5,0,0,1,3.782,5.9v6.341a.937.937,0,0,0,1.875,0V42.076a8.367,8.367,0,0,0-4.948-7.641l-.018-.007-11.209-4.341V27.459a8.784,8.784,0,0,0,3.325-5.778,4.058,4.058,0,0,0,2.384-.972,3.98,3.98,0,0,0,.415-5.616V11.619a11.619,11.619,0,1,0-23.238,0v3.564a3.764,3.764,0,0,0-.967,2.509,3.973,3.973,0,0,0,1.382,3.016,4.056,4.056,0,0,0,2.383.972A8.692,8.692,0,0,0,99.609,27.6v2.49l-11.2,4.341-.018.007a8.367,8.367,0,0,0-4.948,7.641V61.607A2.4,2.4,0,0,0,85.84,64h8.932a.938.938,0,0,0,0-1.875H92.755V43.663a.938.938,0,0,0-1.875,0V62.125H85.84a.518.518,0,0,1-.518-.518V42.076a6.5,6.5,0,0,1,3.78-5.9l6.729-2.609,2.956,5.925a1.642,1.642,0,0,0,1.47.909,2.124,2.124,0,0,0,1.342-.582l.755,1.137-2.8,16.558c0,.009,0,.019,0,.028a1.681,1.681,0,0,0,.406,1.349l2.943,3.237H99.147a.938.938,0,0,0,0,1.875h25.046a2.4,2.4,0,0,0,2.393-2.393V52.793A.938.938,0,0,0,125.648,51.855Zm-13.21-18.972-2.756,5.524-3.315-2.354,3.4-4.2ZM106.9,38.729l-.715,1.076h-2.338l-.715-1.076,1.884-1.338Zm-5.413-8.339V28.636a9.512,9.512,0,0,0,3.545.672,8.8,8.8,0,0,0,3.507-.731V30.4l-3.523,4.348Zm14.142-12.7a2.1,2.1,0,0,1-.73,1.594,2.184,2.184,0,0,1-1.083.5V15.6A2.121,2.121,0,0,1,115.626,17.692ZM96.017,19.785A2.118,2.118,0,0,1,94.2,17.692a2.226,2.226,0,0,1,1.813-2.045Zm.05-6.048a4.635,4.635,0,0,0-.9.2v-2.32a9.744,9.744,0,1,1,19.488,0v2.255a4.168,4.168,0,0,0-.845-.163c0-.9.008-.73-2.951-3.912a1.668,1.668,0,0,0-2.13-.26,18.075,18.075,0,0,1-10.927,2.941A1.667,1.667,0,0,0,96.067,13.737Zm1.825,6.786V14.366a20.034,20.034,0,0,0,11.717-3.16c1.357,1.457,2.092,2.222,2.329,2.512v6.8a7.024,7.024,0,0,1-14.047,0Zm2.452,17.884-2.756-5.524,2.662-1.031,3.405,4.2Zm1.076,19.305,2.714-16.033h1.759l2.714,16.033-3.593,3.953Z" transform="translate(-83.447)" fill="#00aba5"/>
  </g>
</svg>
