<svg id="Group_142" data-name="Group 142" xmlns="http://www.w3.org/2000/svg" width="65" height="65" viewBox="0 0 65 65">
  <g id="Group_143" data-name="Group 143" transform="translate(26)">
    <g id="Group_142-2" data-name="Group 142">
      <path id="Path_45" data-name="Path 45" d="M198.5,0A6.5,6.5,0,1,0,205,6.5,6.5,6.5,0,0,0,198.5,0Zm0,10.833A4.333,4.333,0,1,1,202.833,6.5,4.333,4.333,0,0,1,198.5,10.833Z" transform="translate(-192)" fill="#00aba5"/>
    </g>
  </g>
  <g id="Group_145" data-name="Group 145" transform="translate(22.75 14.083)">
    <g id="Group_144" data-name="Group 144">
      <path id="Path_46" data-name="Path 46" d="M182.083,104h-.256l-.229.114a8.636,8.636,0,0,1-7.7,0l-.229-.114h-.256A5.423,5.423,0,0,0,168,109.417v6.5a3.25,3.25,0,0,0,3.25,3.25h13a3.25,3.25,0,0,0,3.25-3.25v-6.5A5.423,5.423,0,0,0,182.083,104Zm3.25,11.917A1.083,1.083,0,0,1,184.25,117h-13a1.083,1.083,0,0,1-1.083-1.083v-6.5a3.25,3.25,0,0,1,3.019-3.241,10.842,10.842,0,0,0,9.128,0,3.25,3.25,0,0,1,3.019,3.241Z" transform="translate(-168 -104)" fill="#00aba5"/>
    </g>
  </g>
  <g id="Group_147" data-name="Group 147" transform="translate(48.75 35.75)">
    <g id="Group_146" data-name="Group 146">
      <path id="Path_47" data-name="Path 47" d="M366.5,264a6.5,6.5,0,1,0,6.5,6.5A6.5,6.5,0,0,0,366.5,264Zm0,10.833a4.333,4.333,0,1,1,4.333-4.333A4.333,4.333,0,0,1,366.5,274.833Z" transform="translate(-360 -264)" fill="#00aba5"/>
    </g>
  </g>
  <g id="Group_149" data-name="Group 149" transform="translate(45.5 49.833)">
    <g id="Group_148" data-name="Group 148">
      <path id="Path_48" data-name="Path 48" d="M350.083,368h-.256l-.229.108a8.637,8.637,0,0,1-7.7,0l-.229-.108h-.256A5.423,5.423,0,0,0,336,373.417v6.5a3.25,3.25,0,0,0,3.25,3.25h13a3.25,3.25,0,0,0,3.25-3.25v-6.5A5.423,5.423,0,0,0,350.083,368Zm3.25,11.917A1.083,1.083,0,0,1,352.25,381h-13a1.083,1.083,0,0,1-1.083-1.083v-6.5a3.25,3.25,0,0,1,3.019-3.241,10.842,10.842,0,0,0,9.128,0,3.25,3.25,0,0,1,3.019,3.241Z" transform="translate(-336 -368)" fill="#00aba5"/>
    </g>
  </g>
  <g id="Group_151" data-name="Group 151" transform="translate(3.25 35.75)">
    <g id="Group_150" data-name="Group 150">
      <path id="Path_49" data-name="Path 49" d="M30.5,264a6.5,6.5,0,1,0,6.5,6.5A6.5,6.5,0,0,0,30.5,264Zm0,10.833a4.333,4.333,0,1,1,4.333-4.333A4.333,4.333,0,0,1,30.5,274.833Z" transform="translate(-24 -264)" fill="#00aba5"/>
    </g>
  </g>
  <g id="Group_153" data-name="Group 153" transform="translate(0 49.833)">
    <g id="Group_152" data-name="Group 152" transform="translate(0)">
      <path id="Path_50" data-name="Path 50" d="M14.083,368h-.256l-.229.108a8.637,8.637,0,0,1-7.7,0L5.672,368H5.417A5.423,5.423,0,0,0,0,373.417v6.5a3.25,3.25,0,0,0,3.25,3.25h13a3.25,3.25,0,0,0,3.25-3.25v-6.5A5.423,5.423,0,0,0,14.083,368Zm3.25,11.917A1.083,1.083,0,0,1,16.25,381h-13a1.083,1.083,0,0,1-1.083-1.083v-6.5a3.25,3.25,0,0,1,3.019-3.241,10.842,10.842,0,0,0,9.128,0,3.25,3.25,0,0,1,3.019,3.241Z" transform="translate(0 -368)" fill="#00aba5"/>
    </g>
  </g>
  <g id="Group_155" data-name="Group 155" transform="translate(21.666 53.083)">
    <g id="Group_154" data-name="Group 154">
      <path id="Path_51" data-name="Path 51" d="M181.58,393.929l0,0a1.083,1.083,0,0,0-1.421-.572h0a24.031,24.031,0,0,1-15.452,1.064l1.014-.3a1.084,1.084,0,1,0-.609-2.08l-4.333,1.271c-.016,0-.028.018-.043.024a1.076,1.076,0,0,0-.28.155.951.951,0,0,0-.108.068,1.049,1.049,0,0,0-.265.368,1.085,1.085,0,0,0-.082.447,3.344,3.344,0,0,0,.108.433c.007.015,0,.032.012.048L162.285,399a1.084,1.084,0,0,0,1.922-1l-.882-1.686A26.077,26.077,0,0,0,181,395.349,1.083,1.083,0,0,0,181.58,393.929Z" transform="translate(-159.998 -391.995)" fill="#00aba5"/>
    </g>
  </g>
  <g id="Group_157" data-name="Group 157" transform="translate(41.166 8.48)">
    <g id="Group_156" data-name="Group 156">
      <path id="Path_52" data-name="Path 52" d="M324.264,82.626a1.083,1.083,0,0,0-1.532,0L321.2,84.159a25.961,25.961,0,0,0-15.693-21.45,1.083,1.083,0,0,0-.849,1.993,23.8,23.8,0,0,1,14.329,19.146l-1.222-1.222a1.083,1.083,0,0,0-1.532,1.532l3.25,3.25a1.083,1.083,0,0,0,1.532,0l0,0,3.25-3.25A1.083,1.083,0,0,0,324.264,82.626Z" transform="translate(-303.998 -62.622)" fill="#00aba5"/>
    </g>
  </g>
  <g id="Group_159" data-name="Group 159" transform="translate(6.5 6.518)">
    <g id="Group_158" data-name="Group 158">
      <path id="Path_53" data-name="Path 53" d="M65.3,51a1.007,1.007,0,0,0-.028-.187c0-.01-.012-.016-.016-.027s0-.018,0-.027a1.039,1.039,0,0,0-.1-.149,1.093,1.093,0,0,0-.124-.179,1.017,1.017,0,0,0-.211-.144A.954.954,0,0,0,64.7,50.2l-4.333-1.979a1.083,1.083,0,0,0-.9,1.969l2.244,1.026A25.96,25.96,0,0,0,48,74.116a1.083,1.083,0,1,0,2.167,0A23.8,23.8,0,0,1,61.892,53.594l-.783,1.637a1.083,1.083,0,0,0,.506,1.444,1.067,1.067,0,0,0,.469.108,1.083,1.083,0,0,0,.975-.614l2.167-4.521a.049.049,0,0,1,.009-.034,1.042,1.042,0,0,0,.058-.23,1.121,1.121,0,0,0,.041-.179A1.079,1.079,0,0,0,65.3,51Z" transform="translate(-48 -48.134)" fill="#00aba5"/>
    </g>
  </g>
</svg>
