<svg id="Group_203" data-name="Group 203" xmlns="http://www.w3.org/2000/svg" width="59.464" height="65" viewBox="0 0 59.464 65">
  <path id="Path_71" data-name="Path 71" d="M27.066,28.774l.792-.692V63.1H26.08a.952.952,0,0,0,0,1.9h51.5a3.694,3.694,0,0,0,3.69-3.69,1.9,1.9,0,0,0-1.9-1.9h-.125a3.256,3.256,0,0,0,.3-1.372v-12.2a3.28,3.28,0,0,0-3.276-3.276H75.211V28.082l.792.692a3.174,3.174,0,0,0,4.177-4.78l-4.969-4.343V12.8a.952.952,0,1,0-1.9,0v5.186l-4.48-3.915V5.426h4.48V8.358a.952.952,0,1,0,1.9,0V5.426h.252a1.72,1.72,0,0,0,1.718-1.718V1.718A1.72,1.72,0,0,0,75.464,0H66.67a1.72,1.72,0,0,0-1.718,1.718V3.707A1.72,1.72,0,0,0,66.67,5.426h.252v6.982L53.623.784a3.185,3.185,0,0,0-4.177,0L22.888,23.995a3.174,3.174,0,0,0,4.177,4.779Zm7.2,23.8V63.1H29.762V26.418L51.535,7.389,73.307,26.418V42.569H65.138c.115-1.855-.587-3.62-1.8-4.244-.279-.144-1.138-.629-1.138-.941V34.722a.952.952,0,0,0-1.9,0v2.663c0,1.251,1.052,2.058,2.169,2.633a2.983,2.983,0,0,1,.757,2.551H59.362a3.288,3.288,0,0,0-2.183.835l-1.161-.45V41.521a7.24,7.24,0,0,0,2.75-5.671V32.112A1.666,1.666,0,0,0,57.1,30.448a11.823,11.823,0,0,1-2.814-.222,2.707,2.707,0,0,1-1.725-1.9,1.058,1.058,0,0,0-2.056,0,2.691,2.691,0,0,1-.683,1.225c-.869.9-1.847.9-3.856.9A1.666,1.666,0,0,0,44.3,32.112v3.8a7.116,7.116,0,0,0,2.744,5.621v1.42l-.014.005-5.753,2.23c-2.1-1.321-1.56-4.72-.687-5.17,1.113-.574,2.176-1.379,2.176-2.635V29.946a8.871,8.871,0,0,1,8.649-8.908A8.758,8.758,0,0,1,60.3,29.8v.477a.952.952,0,0,0,1.9,0c0-6.984-5.252-11.217-10.81-11.145A10.782,10.782,0,0,0,40.866,29.946v7.437c0,.305-.856.794-1.144.943-1.978,1.02-2.626,5.224-.441,7.638l-.952.369-.018.007a6.835,6.835,0,0,0-4.043,6.237Zm17.288-11.43a5.245,5.245,0,0,1-5.349-5.236V32.352a15.8,15.8,0,0,0,2.092-.094,4.555,4.555,0,0,0,3.236-1.78,4.553,4.553,0,0,0,3.191,1.773,14.237,14.237,0,0,0,2.134.1v3.5a5.3,5.3,0,0,1-5.305,5.3Zm3.874,3.623a5.309,5.309,0,0,1-3.805,1.594,5.513,5.513,0,0,1-3.991-1.6c.794-.311,1.317-.727,1.317-1.6v-.581a7.5,7.5,0,0,0,5.16.016v.572a1.585,1.585,0,0,0,1.016,1.479ZM40.195,63.1H36.172V57.447h4.023ZM54.367,61.31a3.71,3.71,0,0,0,.461,1.785H42.1V52.54a.952.952,0,0,0-1.9,0v3H36.172V52.576A4.962,4.962,0,0,1,39.027,48.1l6.719-2.6a7.312,7.312,0,0,0,5.879,2.768,7.2,7.2,0,0,0,4.46-1.533V58.041a3.306,3.306,0,0,0,.3,1.372h-.124A1.9,1.9,0,0,0,54.367,61.31Zm25,.008A1.787,1.787,0,0,1,77.576,63.1H58.056a1.788,1.788,0,0,1-1.785-1.778ZM76.271,44.474a1.374,1.374,0,0,1,1.372,1.372v12.2a1.374,1.374,0,0,1-1.372,1.372H59.362a1.374,1.374,0,0,1-1.372-1.372v-12.2a1.378,1.378,0,0,1,1.372-1.372ZM66.856,3.521V1.9h8.421V3.521H66.856ZM24.142,25.429,50.7,2.218a1.274,1.274,0,0,1,1.671,0L78.927,25.429a1.27,1.27,0,0,1-1.671,1.912L52.513,5.715a1.491,1.491,0,0,0-1.956,0L25.813,27.34a1.27,1.27,0,1,1-1.671-1.912Z" transform="translate(-21.802)" fill="#00aba5"/>
  <path id="Path_72" data-name="Path 72" d="M374.166,401.655h-1.36a.952.952,0,0,0,0,1.9h1.36a.952.952,0,0,0,0-1.9Z" transform="translate(-327.414 -350.664)" fill="#00aba5"/>
</svg>
