<svg xmlns="http://www.w3.org/2000/svg" width="16.654" height="18.544" viewBox="0 0 16.654 18.544"><path d="M42.75,2.96H41.736V2.28a2.28,2.28,0,1,0-4.559,0v.68H36.163V5.218a7.013,7.013,0,1,0,3.5,3.807h3.09V2.96Zm-4.487-.68a1.193,1.193,0,1,1,2.386,0v.68H38.263V2.28ZM30.214,16.7V15.229a2.154,2.154,0,0,1,2.152-2.152h1.487A2.154,2.154,0,0,1,36,15.229V16.7a5.916,5.916,0,0,1-5.791,0Zm2.9-4.71a1.325,1.325,0,1,1,1.325-1.325A1.326,1.326,0,0,1,33.11,11.991Zm5.927-.46a5.913,5.913,0,0,1-1.945,4.387v-.688a3.244,3.244,0,0,0-2.116-3.038,2.411,2.411,0,1,0-3.732,0,3.244,3.244,0,0,0-2.116,3.038v.688a5.924,5.924,0,0,1,7.035-9.465V9.025H38.48A5.89,5.89,0,0,1,39.037,11.531Zm2.627-3.593H40V5.449H38.913V7.938H37.249V4.047h4.414V7.938Z" transform="translate(-26.096)" fill="#00aba5"/></svg>