<svg xmlns="http://www.w3.org/2000/svg" width="29.966" height="30" viewBox="0 0 29.966 30">
  <g id="Group_271" data-name="Group 271" transform="translate(-66 -172.5)">
    <path id="Path_45" data-name="Path 45" d="M174.807,286.465a7.03,7.03,0,1,0,7.03,7.03,7.038,7.038,0,0,0-7.03-7.03Zm-2.245,11.8a2.634,2.634,0,0,1,4.489,0,5.268,5.268,0,0,1-4.489,0Zm5.932-1.006a4.427,4.427,0,0,0-1.037-1.118,4.4,4.4,0,0,0-5.3,0,4.434,4.434,0,0,0-1.037,1.118,5.273,5.273,0,1,1,7.375,0Zm0,0" transform="translate(-93.823 -105.059)" fill="#00aba3"/>
    <path id="Path_46" data-name="Path 46" d="M229.3,334.109a2.636,2.636,0,1,0-2.636,2.636,2.639,2.639,0,0,0,2.636-2.636Zm-2.636.879a.879.879,0,1,1,.879-.879.88.88,0,0,1-.879.879Zm0,0" transform="translate(-145.684 -146.552)" fill="#00aba3"/>
    <path id="Path_47" data-name="Path 47" d="M95.966,185.617,92.41,182.5v-6.194H87.137v1.579L80.983,172.5,66,185.618l1.158,1.323.64-.56V202.5H94.169V186.379l.638.559ZM92.41,200.742H69.556v-15.9l11.427-10,7.911,6.922v-3.7h1.758V183.3l1.758,1.542Zm0,0" transform="translate(0 0)" fill="#00aba3"/>
  </g>
</svg>
