<svg id="Group_151" data-name="Group 151" xmlns="http://www.w3.org/2000/svg" width="30" height="30" viewBox="0 0 30 30">
  <path id="Path_48" data-name="Path 48" d="M83.575,172.5A11.419,11.419,0,0,0,74.9,191.354l-1.2,1.2a2.641,2.641,0,0,0-3,.515l-5.7,5.7,3.729,3.729,5.7-5.7a2.641,2.641,0,0,0,.515-3l1.2-1.2a11.423,11.423,0,1,0,7.43-20.1ZM73.186,195.557l-4.457,4.457-1.243-1.243,4.457-4.457a.879.879,0,1,1,1.243,1.243Zm10.389-1.965a9.667,9.667,0,1,1,9.667-9.667,9.678,9.678,0,0,1-9.667,9.667Zm0,0" transform="translate(-65 -172.5)" fill="#00aba3"/>
  <path id="Path_49" data-name="Path 49" d="M264.817,221.022a3.526,3.526,0,1,0-3.526,3.526,3.53,3.53,0,0,0,3.526-3.526Zm-3.526,1.763a1.763,1.763,0,1,1,1.763-1.763,1.765,1.765,0,0,1-1.763,1.763Zm0,0" transform="translate(-242.72 -213.97)" fill="#00aba3"/>
  <path id="Path_50" data-name="Path 50" d="M230.186,307.488a6.177,6.177,0,0,0-6.17,6.17v.881h12.34v-.881a6.177,6.177,0,0,0-6.17-6.17Zm-4.319,5.289a4.408,4.408,0,0,1,8.637,0Zm0,0" transform="translate(-211.618 -296.952)" fill="#00aba3"/>
</svg>
