<svg id="Group_2" data-name="Group 2" xmlns="http://www.w3.org/2000/svg" width="30" height="30" viewBox="0 0 30 30">
  <path id="Path_11" data-name="Path 11" d="M8.438,249.313a4.647,4.647,0,1,0-5.7,0A5.582,5.582,0,0,0,0,254.123v1.884a.879.879,0,0,0,.879.879H10.3a.879.879,0,0,0,.879-.879v-1.884A5.582,5.582,0,0,0,8.438,249.313ZM2.7,245.647a2.888,2.888,0,1,1,2.888,2.888A2.891,2.891,0,0,1,2.7,245.647Zm6.718,9.481H1.759v-1a3.83,3.83,0,0,1,7.66,0v1Z" transform="translate(0 -226.886)" fill="#00aba5"/>
  <path id="Path_12" data-name="Path 12" d="M207.808,0h-11.3a3.7,3.7,0,0,0-3.7,3.7V20.658a.88.88,0,0,0,1.407.7l3.533-2.65h10.067a3.7,3.7,0,0,0,3.7-3.7V3.7A3.7,3.7,0,0,0,207.808,0Zm1.946,15.007a1.945,1.945,0,0,1-1.946,1.946h-10.36a.88.88,0,0,0-.528.176l-2.36,1.77V3.7a1.945,1.945,0,0,1,1.946-1.946h11.3A1.945,1.945,0,0,1,209.754,3.7Z" transform="translate(-181.512)" fill="#00aba5"/>
  <path id="Path_13" data-name="Path 13" d="M267.364,80.332h-9.418a.879.879,0,1,0,0,1.759h9.418a.879.879,0,1,0,0-1.759Z" transform="translate(-242.01 -75.625)" fill="#00aba5"/>
  <path id="Path_14" data-name="Path 14" d="M267.364,144.6h-9.418a.879.879,0,0,0,0,1.759h9.418a.879.879,0,0,0,0-1.759Z" transform="translate(-242.01 -136.129)" fill="#00aba5"/>
  <path id="Path_15" data-name="Path 15" d="M262.654,208.867h-4.709a.879.879,0,1,0,0,1.759h4.709a.879.879,0,1,0,0-1.759Z" transform="translate(-242.005 -196.629)" fill="#00aba5"/>
</svg>
