<svg xmlns="http://www.w3.org/2000/svg" width="18.544" height="18.544" viewBox="0 0 18.544 18.544"><path d="M5.213,246.136a2.871,2.871,0,1,0-3.521,0A3.449,3.449,0,0,0,0,249.108v1.164a.543.543,0,0,0,.543.543H6.363a.543.543,0,0,0,.543-.543v-1.164A3.449,3.449,0,0,0,5.213,246.136Zm-3.545-2.265a1.784,1.784,0,1,1,1.785,1.785A1.787,1.787,0,0,1,1.668,243.871Zm4.151,5.858H1.087v-.621a2.366,2.366,0,0,1,4.733,0v.621Z" transform="translate(0 -232.271)" fill="#00aba5"/><path d="M202.073,0H195.09A2.288,2.288,0,0,0,192.8,2.289V12.764a.544.544,0,0,0,.869.435l2.183-1.637h6.22a2.288,2.288,0,0,0,2.289-2.289V2.289A2.288,2.288,0,0,0,202.073,0Zm1.2,9.272a1.2,1.2,0,0,1-1.2,1.2h-6.4a.544.544,0,0,0-.326.109l-1.458,1.094V2.289a1.2,1.2,0,0,1,1.2-1.2h6.983a1.2,1.2,0,0,1,1.2,1.2Z" transform="translate(-185.818)" fill="#00aba5"/><path d="M263.429,80.332h-5.819a.543.543,0,1,0,0,1.087h5.819a.543.543,0,1,0,0-1.087Z" transform="translate(-247.755 -77.422)" fill="#00aba5"/><path d="M263.429,144.6h-5.819a.543.543,0,0,0,0,1.087h5.819a.543.543,0,1,0,0-1.087Z" transform="translate(-247.755 -139.365)" fill="#00aba5"/><path d="M260.519,208.867h-2.91a.543.543,0,1,0,0,1.087h2.91a.543.543,0,0,0,0-1.087Z" transform="translate(-247.755 -201.302)" fill="#00aba5"/></svg>