<svg id="Group_169" data-name="Group 169" xmlns="http://www.w3.org/2000/svg" width="16" height="16" viewBox="0 0 16 16">
  <g id="Group_164" data-name="Group 164" transform="translate(0)">
    <path id="Path_66" data-name="Path 66" d="M13.649,2.351a7.989,7.989,0,1,0,0,11.3A7.964,7.964,0,0,0,13.649,2.351ZM8,15.061A7.061,7.061,0,1,1,15.061,8,7.069,7.069,0,0,1,8,15.061Z" transform="translate(0 0)" fill="#00aba5"/>
  </g>
  <g id="Group_165" data-name="Group 165" transform="translate(2.032 2.032)">
    <path id="Path_67" data-name="Path 67" d="M71,65.037A5.968,5.968,0,1,0,76.972,71,5.974,5.974,0,0,0,71,65.037Zm0,11A5.03,5.03,0,1,1,76.035,71,5.036,5.036,0,0,1,71,76.035Z" transform="translate(-65.037 -65.037)" fill="#00aba5"/>
  </g>
  <g id="Group_166" data-name="Group 166" transform="translate(10.531 7.531)">
    <path id="Path_68" data-name="Path 68" d="M337.368,241.016a.469.469,0,1,0,.454.757A.469.469,0,0,0,337.368,241.016Z" transform="translate(-336.992 -241.007)" fill="#00aba5"/>
  </g>
  <g id="Group_167" data-name="Group 167" transform="translate(4.531 7.532)">
    <path id="Path_69" data-name="Path 69" d="M145.727,241.087a.468.468,0,1,0-.169.849.468.468,0,0,0,.169-.849Z" transform="translate(-144.998 -241.008)" fill="#00aba5"/>
  </g>
  <g id="Group_168" data-name="Group 168" transform="translate(6.657 5.573)">
    <path id="Path_70" data-name="Path 70" d="M214.9,180.461a3.341,3.341,0,0,1-.805-.371.183.183,0,0,1-.018-.144.261.261,0,0,1,.167-.206.566.566,0,0,1,.5.069.469.469,0,0,0,.634-.69,1.525,1.525,0,0,0-.528-.285v-.039a.469.469,0,1,0-.937,0v.068a1.174,1.174,0,0,0-.4,1.965,3.912,3.912,0,0,0,1.071.517.313.313,0,0,1,.235.374.445.445,0,0,1-.445.378.831.831,0,0,1-.615-.159.469.469,0,1,0-.513.784,1.7,1.7,0,0,0,.663.282v.045a.469.469,0,0,0,.937,0v-.1a1.317,1.317,0,0,0,.051-2.49Z" transform="translate(-213.033 -178.326)" fill="#00aba5"/>
  </g>
</svg>
