<svg id="Group_163" data-name="Group 163" xmlns="http://www.w3.org/2000/svg" width="16" height="16" viewBox="0 0 16 16">
  <path id="Path_63" data-name="Path 63" d="M88.365,13.66a15.23,15.23,0,0,0,7.078,0c1.164-.329,1.754-.8,1.754-1.415s-.59-1.086-1.754-1.415A11.037,11.037,0,0,0,93.6,10.5c1.336-2.281,2.66-4.863,2.66-6.141a4.357,4.357,0,0,0-8.715,0c0,1.277,1.324,3.86,2.66,6.14a11.033,11.033,0,0,0-1.842.333c-1.164.329-1.754.8-1.754,1.415S87.2,13.331,88.365,13.66ZM91.9.937a3.424,3.424,0,0,1,3.42,3.42c0,.969-1.2,3.508-3.206,6.792a.251.251,0,0,1-.428,0c-2.007-3.284-3.206-5.824-3.206-6.792A3.424,3.424,0,0,1,91.9.937ZM88.79,11.687a11.4,11.4,0,0,1,1.95-.294l.149.246a1.188,1.188,0,0,0,2.028,0l.149-.246a11.4,11.4,0,0,1,1.95.294,2.394,2.394,0,0,1,1.234.558,2.393,2.393,0,0,1-1.234.558,13.154,13.154,0,0,1-3.114.336A13.154,13.154,0,0,1,88.79,12.8a2.393,2.393,0,0,1-1.234-.558A2.394,2.394,0,0,1,88.79,11.687Z" transform="translate(-83.904)" fill="#00aba5"/>
  <path id="Path_64" data-name="Path 64" d="M14.635,357.173a.469.469,0,1,0-.451.822c.558.307.879.647.879.933,0,.35-.5.893-1.888,1.365A16.738,16.738,0,0,1,8,361.018a16.738,16.738,0,0,1-5.175-.725c-1.392-.473-1.888-1.015-1.888-1.365,0-.286.32-.626.879-.933a.469.469,0,1,0-.451-.822A2.23,2.23,0,0,0,0,358.928c0,.637.438,1.544,2.524,2.253A17.685,17.685,0,0,0,8,361.955a17.685,17.685,0,0,0,5.476-.774c2.086-.709,2.524-1.616,2.524-2.253A2.23,2.23,0,0,0,14.635,357.173Z" transform="translate(0 -345.955)" fill="#00aba5"/>
  <path id="Path_65" data-name="Path 65" d="M203.456,75.571a1.751,1.751,0,1,0-1.751,1.751A1.753,1.753,0,0,0,203.456,75.571Zm-2.565,0a.814.814,0,1,1,.814.814A.815.815,0,0,1,200.891,75.571Z" transform="translate(-193.704 -71.513)" fill="#00aba5"/>
</svg>
