<svg id="Group_122" data-name="Group 122" xmlns="http://www.w3.org/2000/svg" width="64.998" height="65" viewBox="0 0 64.998 65">
  <g id="Group_123" data-name="Group 123" transform="translate(0)">
    <g id="Group_122-2" data-name="Group 122">
      <path id="Path_35" data-name="Path 35" d="M52.566,18.884a1.27,1.27,0,0,0,1.27-1.27V3.809A3.813,3.813,0,0,0,50.027,0H3.816A3.813,3.813,0,0,0,.007,3.809V61.191A3.813,3.813,0,0,0,3.816,65H50.027a3.813,3.813,0,0,0,3.809-3.809V51.839a1.27,1.27,0,0,0-2.539,0v9.353a1.271,1.271,0,0,1-1.27,1.27H3.816a1.271,1.271,0,0,1-1.27-1.27V3.809a1.271,1.271,0,0,1,1.27-1.27H50.027a1.271,1.271,0,0,1,1.27,1.27V17.615A1.27,1.27,0,0,0,52.566,18.884Z" transform="translate(-0.007)" fill="#00aba5"/>
    </g>
  </g>
  <g id="Group_125" data-name="Group 125" transform="translate(15.234 6.855)">
    <g id="Group_124" data-name="Group 124">
      <path id="Path_36" data-name="Path 36" d="M131.687,54a11.674,11.674,0,0,0-8.013,20.169,1.256,1.256,0,0,0,.136.127,11.658,11.658,0,0,0,15.753,0,1.267,1.267,0,0,0,.136-.127A11.674,11.674,0,0,0,131.687,54Zm0,20.82a9.092,9.092,0,0,1-5.521-1.862,6.348,6.348,0,0,1,11.043,0A9.092,9.092,0,0,1,131.687,74.82Zm-2.031-9.648v-.825a2.031,2.031,0,0,1,4.063,0v.825a2.031,2.031,0,0,1-4.062,0Zm9.387,5.927a8.807,8.807,0,0,0-3.74-3.135,4.546,4.546,0,0,0,.955-2.791v-.825a4.57,4.57,0,0,0-9.141,0v.825a4.546,4.546,0,0,0,.955,2.791,8.807,8.807,0,0,0-3.74,3.135,9.141,9.141,0,1,1,14.711,0Z" transform="translate(-120.007 -54)" fill="#00aba5"/>
    </g>
  </g>
  <g id="Group_127" data-name="Group 127" transform="translate(25.645 55.605)">
    <g id="Group_126" data-name="Group 126" transform="translate(0)">
      <path id="Path_37" data-name="Path 37" d="M210.132,438h-6.855a1.27,1.27,0,1,0,0,2.539h6.855a1.27,1.27,0,0,0,0-2.539Z" transform="translate(-202.007 -438)" fill="#00aba5"/>
    </g>
  </g>
  <g id="Group_129" data-name="Group 129" transform="translate(14.473 48.496)">
    <g id="Group_128" data-name="Group 128">
      <path id="Path_38" data-name="Path 38" d="M133.3,382H115.277a1.27,1.27,0,1,0,0,2.539H133.3a1.27,1.27,0,0,0,0-2.539Z" transform="translate(-114.007 -382)" fill="#00aba5"/>
    </g>
  </g>
  <g id="Group_131" data-name="Group 131" transform="translate(14.473 41.387)">
    <g id="Group_130" data-name="Group 130">
      <path id="Path_39" data-name="Path 39" d="M133.3,326H115.277a1.27,1.27,0,1,0,0,2.539H133.3a1.27,1.27,0,0,0,0-2.539Z" transform="translate(-114.007 -326)" fill="#00aba5"/>
    </g>
  </g>
  <g id="Group_133" data-name="Group 133" transform="translate(9.049 34.277)">
    <g id="Group_132" data-name="Group 132" transform="translate(0)">
      <path id="Path_40" data-name="Path 40" d="M73.455,270.372a1.269,1.269,0,1,0,.372.9A1.279,1.279,0,0,0,73.455,270.372Z" transform="translate(-71.287 -270)" fill="#00aba5"/>
    </g>
  </g>
  <g id="Group_135" data-name="Group 135" transform="translate(9.049 41.387)">
    <g id="Group_134" data-name="Group 134" transform="translate(0)">
      <path id="Path_41" data-name="Path 41" d="M73.455,326.372a1.269,1.269,0,1,0,.372.9A1.282,1.282,0,0,0,73.455,326.372Z" transform="translate(-71.287 -326)" fill="#00aba5"/>
    </g>
  </g>
  <g id="Group_137" data-name="Group 137" transform="translate(9.049 48.496)">
    <g id="Group_136" data-name="Group 136" transform="translate(0)">
      <path id="Path_42" data-name="Path 42" d="M73.455,382.372a1.269,1.269,0,1,0,.372.9A1.282,1.282,0,0,0,73.455,382.372Z" transform="translate(-71.287 -382)" fill="#00aba5"/>
    </g>
  </g>
  <g id="Group_139" data-name="Group 139" transform="translate(14.473 34.277)">
    <g id="Group_138" data-name="Group 138">
      <path id="Path_43" data-name="Path 43" d="M133.3,270H115.277a1.27,1.27,0,1,0,0,2.539H133.3a1.27,1.27,0,0,0,0-2.539Z" transform="translate(-114.007 -270)" fill="#00aba5"/>
    </g>
  </g>
  <g id="Group_141" data-name="Group 141" transform="translate(37.779 15.828)">
    <g id="Group_140" data-name="Group 140">
      <path id="Path_44" data-name="Path 44" d="M322.144,125.392a5.332,5.332,0,0,0-7.284,1.952l-15.976,27.671a1.272,1.272,0,0,0-.162.494L297.6,165.581a1.27,1.27,0,0,0,2.014,1.163l8.161-6.01a1.267,1.267,0,0,0,.347-.387L324.1,132.676A5.338,5.338,0,0,0,322.144,125.392Zm-21.7,37.588.587-5.26,3.674,2.121Zm6.113-5-4.838-2.793,12.82-22.205,4.838,2.793ZM321.9,131.406l-1.251,2.167-4.838-2.793,1.251-2.167a2.793,2.793,0,0,1,4.838,2.793Z" transform="translate(-297.589 -124.675)" fill="#00aba5"/>
    </g>
  </g>
</svg>
