<svg xmlns="http://www.w3.org/2000/svg" width="14.931" height="13.998" viewBox="0 0 14.931 13.998">
  <g id="Group_157" data-name="Group 157" transform="translate(0 -16)">
    <path id="Path_52" data-name="Path 52" d="M13.128,19.7V18.187a.438.438,0,0,0-.438-.437H8.752V16.437A.438.438,0,0,0,8.315,16h-3.5a.438.438,0,0,0-.438.437V17.75H.438A.438.438,0,0,0,0,18.187V28.5a.438.438,0,0,0,.438.437H10.774a1.313,1.313,0,0,0,2.6-.248V24.927a2.875,2.875,0,0,0-.248-5.222ZM5.25,16.875H7.877v.875H5.25ZM.875,18.625H12.252v.883A2.867,2.867,0,0,0,9.2,22.124H1.6A.73.73,0,0,1,.875,21.4v-2.77ZM6.126,23H7v.875H6.126ZM.875,22.823A1.6,1.6,0,0,0,1.6,23H5.251v1.312a.438.438,0,0,0,.438.437h1.75a.438.438,0,0,0,.438-.437V23H9.26a2.862,2.862,0,0,0,1.49,1.928v3.132H.875Zm11.188,6.3a.438.438,0,0,1-.438-.437V26.937H12.5v1.748A.438.438,0,0,1,12.063,29.123Zm.438-3.061h-.875v-.853a2.858,2.858,0,0,0,.875,0Zm-.438-1.693a2,2,0,1,1,2-2A2,2,0,0,1,12.063,24.37Z" fill="#00aba3"/>
  </g>
</svg>
