<svg xmlns="http://www.w3.org/2000/svg" width="24.317" height="30" viewBox="0 0 24.317 30">
  <path id="Path_53" data-name="Path 53" d="M66.661,20.332v8.5a1.172,1.172,0,1,1-2.344,0V21.5H54.356a1.172,1.172,0,0,1-1.172-1.172V9.375A1.172,1.172,0,0,1,54.356,8.2h4.688a1.172,1.172,0,0,1,1.172,1.172v6.27a1.172,1.172,0,1,1-2.344,0v-5.1H55.528V19.16h9.961A1.172,1.172,0,0,1,66.661,20.332ZM60.8,23.848H50.841V7.939a1.172,1.172,0,1,0-2.344,0V28.828a1.172,1.172,0,1,0,2.344,0V26.191H59.63v2.637a1.172,1.172,0,0,0,2.344,0V25.02A1.172,1.172,0,0,0,60.8,23.848ZM71.95,8.069a1.172,1.172,0,0,0-1.439.822l-1.522,5.582H63.731a1.172,1.172,0,0,0,0,2.344h6.152a1.172,1.172,0,0,0,1.131-.864l1.758-6.445A1.172,1.172,0,0,0,71.95,8.069ZM53.185,3.516A3.516,3.516,0,1,1,56.7,7.031,3.52,3.52,0,0,1,53.185,3.516Zm2.344,0A1.172,1.172,0,1,0,56.7,2.344,1.173,1.173,0,0,0,55.528,3.516Z" transform="translate(-48.497)" fill="#00aba3"/>
</svg>
