<svg id="Group_96" data-name="Group 96" xmlns="http://www.w3.org/2000/svg" width="11.428" height="15" viewBox="0 0 11.428 15">
  <g id="Group_93" data-name="Group 93">
    <g id="Group_92" data-name="Group 92" transform="translate(0 0)">
      <path id="Path_30" data-name="Path 30" d="M61.24,3.9A5.567,5.567,0,0,1,64.865.274a5.831,5.831,0,0,1,5.2.833,5.74,5.74,0,0,1,2.327,4.6,5.665,5.665,0,0,1-1.141,3.426L66.675,15,62.1,9.134A5.777,5.777,0,0,1,61.24,3.9Zm5.436,4.886A3.077,3.077,0,1,0,63.6,5.709,3.081,3.081,0,0,0,66.675,8.786Z" transform="translate(-60.962 0)" fill="#aeaeb1"/>
    </g>
  </g>
  <g id="Group_95" data-name="Group 95" transform="translate(3.519 3.519)">
    <g id="Group_94" data-name="Group 94" transform="translate(0)">
      <path id="Path_31" data-name="Path 31" d="M183.193,120.027A2.192,2.192,0,1,1,181,122.216,2.192,2.192,0,0,1,183.193,120.027Z" transform="translate(-180.998 -120.027)" fill="#aeaeb1"/>
    </g>
  </g>
</svg>
