<svg id="Group_91" data-name="Group 91" xmlns="http://www.w3.org/2000/svg" width="18" height="15" viewBox="0 0 18 15">
  <path id="Path_27" data-name="Path 27" d="M175.708,45.908a.72.72,0,0,1-.72-.72v-1.08h-2.881v1.08a.72.72,0,1,1-1.44,0v-1.08a1.442,1.442,0,0,1,1.44-1.44h2.881a1.442,1.442,0,0,1,1.44,1.44v1.08A.72.72,0,0,1,175.708,45.908Z" transform="translate(-164.547 -42.667)" fill="#aeaeb1"/>
  <path id="Path_28" data-name="Path 28" d="M9.533,250.6a1.6,1.6,0,0,1-.533.086,1.7,1.7,0,0,1-.578-.1L0,247.893v5.495a2.022,2.022,0,0,0,2.063,1.98H15.938A2.022,2.022,0,0,0,18,253.388v-5.495Z" transform="translate(0 -240.368)" fill="#aeaeb1"/>
  <path id="Path_29" data-name="Path 29" d="M18,108.647V110.3l-8.82,2.823a.576.576,0,0,1-.36,0L0,110.3v-1.649a2.022,2.022,0,0,1,2.063-1.98H15.938A2.022,2.022,0,0,1,18,108.647Z" transform="translate(0 -104.344)" fill="#aeaeb1"/>
</svg>
